<svg width="4417" height="3353" viewBox="0 0 4417 3353" fill="none" xmlns="http://www.w3.org/2000/svg">
<path d="M2093.75 1560.88L2143.46 975.203L2715.39 844.042L3017.6 1344.36L2634.43 1788.63L2093.75 1560.88Z" fill="#C4C4C4"/>
<path d="M2234.37 2402.7C2481.49 2446.85 2820.65 2553.71 3278.37 2189.49L2673.08 2042L2234.37 2402.7Z" fill="#C4C4C4"/>
<path d="M3616.15 1804.21C3691.86 1577.55 3839.23 1272.85 3560.58 791.382L3338.17 1341.14L3616.15 1804.21Z" fill="#C4C4C4"/>
<path d="M3330.71 495.598C3127.03 349.102 2867.44 106.465 2297.95 235.899L2779.86 630.094L3330.71 495.598Z" fill="#C4C4C4"/>
<path d="M2095.98 267.421C1875.41 386.972 1543.94 514.994 1412.45 1084.02L1977.17 821.862L2095.98 267.421Z" fill="#C4C4C4"/>
<path d="M1452.67 1470.51C1465.01 1673.37 1439.43 1963.54 1872.15 2226.13L1878.09 1719.26L1452.67 1470.51Z" fill="#FFC83E"/>
<path d="M85.3691 3024C379.631 2968.84 1082.4 2637.62 1539.35 1754L1644.37 2035.29C1298.3 2631.67 518.146 2959.59 85.3691 3024Z" fill="#FFC83E"/>
<path d="M-0.000204285 3087.68C426.3 3080.93 1203.54 3017.8 1954.87 2273.5L2139.87 2369L2402.37 2426.5C1729.4 2899.39 625.035 3094.48 -0.000204285 3087.68Z" fill="#C4C4C4"/>
<path d="M2917.8 2000.8C2780.52 2015.47 2654.39 2022.8 2539.4 2022.8C2481.91 2022.8 2439.67 2009.31 2412.68 1982.32C2385.69 1955.33 2372.2 1913.09 2372.2 1855.6V1574C2372.2 1512.4 2385.99 1467.81 2413.56 1440.24C2441.72 1412.08 2486.6 1398 2548.2 1398H2865V1521.2H2583.4C2548.2 1521.2 2530.6 1538.8 2530.6 1574V1855.6C2530.6 1869.09 2534.41 1879.95 2542.04 1888.16C2550.25 1895.79 2561.11 1899.6 2574.6 1899.6C2642.07 1899.6 2703.67 1898.13 2759.4 1895.2V1767.6H2645V1662H2917.8V2000.8ZM3401.97 1565.2C3401.97 1530 3384.37 1512.4 3349.17 1512.4H3199.57C3164.37 1512.4 3146.77 1530 3146.77 1565.2V1846.8C3146.77 1882 3164.37 1899.6 3199.57 1899.6H3349.17C3384.37 1899.6 3401.97 1882 3401.97 1846.8V1565.2ZM3560.37 1846.8C3560.37 1908.4 3546.29 1953.28 3518.13 1981.44C3490.56 2009.01 3445.97 2022.8 3384.37 2022.8H3164.37C3102.77 2022.8 3057.89 2009.01 3029.73 1981.44C3002.16 1953.28 2988.37 1908.4 2988.37 1846.8V1565.2C2988.37 1503.6 3002.16 1459.01 3029.73 1431.44C3057.89 1403.28 3102.77 1389.2 3164.37 1389.2H3384.37C3445.97 1389.2 3490.56 1403.28 3518.13 1431.44C3546.29 1459.01 3560.37 1503.6 3560.37 1565.2V1846.8ZM3807.18 1890.8H4128.38V2014H3648.78V1398H3807.18V1890.8Z" fill="#FFC83E"/>
<path d="M1227.91 2501.24H1007.8V3065H946.9V2501.24H726.79V2447.3H1227.91V2501.24ZM1320.44 3065V2447.3H1581.44C1608.12 2447.3 1632.48 2452.81 1654.52 2463.83C1677.14 2474.85 1696.57 2489.93 1712.81 2509.07C1729.05 2527.63 1741.52 2548.51 1750.22 2571.71C1759.5 2594.33 1764.14 2617.53 1764.14 2641.31C1764.14 2671.47 1758.34 2699.6 1746.74 2725.7C1735.72 2751.8 1719.77 2773.84 1698.89 2791.82C1678.01 2809.8 1653.94 2821.4 1626.68 2826.62L1778.06 3065H1709.33L1564.04 2837.06H1381.34V3065H1320.44ZM1381.34 2783.12H1583.18C1607.54 2783.12 1628.71 2776.45 1646.69 2763.11C1664.67 2749.19 1678.59 2731.5 1688.45 2710.04C1698.31 2688.58 1703.24 2665.67 1703.24 2641.31C1703.24 2616.37 1697.44 2593.46 1685.84 2572.58C1674.82 2551.12 1659.74 2534.01 1640.6 2521.25C1621.46 2507.91 1600.58 2501.24 1577.96 2501.24H1381.34V2783.12ZM2077.68 2447.3H2129.01L2385.66 3065H2321.28L2241.24 2871.86H1963.71L1884.54 3065H1819.29L2077.68 2447.3ZM2227.32 2824.01L2102.91 2518.64L1976.76 2824.01H2227.32ZM2474.21 3065V2447.3H2683.88C2749.42 2447.3 2803.94 2461.22 2847.44 2489.06C2891.52 2516.32 2924.58 2553.44 2946.62 2600.42C2968.66 2646.82 2979.68 2698.44 2979.68 2755.28C2979.68 2817.92 2967.5 2872.44 2943.14 2918.84C2918.78 2965.24 2884.56 3001.2 2840.48 3026.72C2796.4 3052.24 2744.2 3065 2683.88 3065H2474.21ZM2918.78 2755.28C2918.78 2705.98 2909.5 2662.19 2890.94 2623.91C2872.96 2585.63 2846.28 2555.76 2810.9 2534.3C2776.1 2512.26 2733.76 2501.24 2683.88 2501.24H2535.11V3011.06H2683.88C2734.92 3011.06 2777.84 2999.75 2812.64 2977.13C2847.44 2954.51 2873.83 2924.06 2891.81 2885.78C2909.79 2847.5 2918.78 2804 2918.78 2755.28ZM3511.11 3011.06V3065H3096.12V2447.3H3503.28V2501.24H3157.02V2723.96H3458.91V2775.29H3157.02V3011.06H3511.11ZM3626.28 3065V2447.3H3887.28C3913.96 2447.3 3938.32 2452.81 3960.36 2463.83C3982.98 2474.85 4002.41 2489.93 4018.65 2509.07C4034.89 2527.63 4047.36 2548.51 4056.06 2571.71C4065.34 2594.33 4069.98 2617.53 4069.98 2641.31C4069.98 2671.47 4064.18 2699.6 4052.58 2725.7C4041.56 2751.8 4025.61 2773.84 4004.73 2791.82C3983.85 2809.8 3959.78 2821.4 3932.52 2826.62L4083.9 3065H4015.17L3869.88 2837.06H3687.18V3065H3626.28ZM3687.18 2783.12H3889.02C3913.38 2783.12 3934.55 2776.45 3952.53 2763.11C3970.51 2749.19 3984.43 2731.5 3994.29 2710.04C4004.15 2688.58 4009.08 2665.67 4009.08 2641.31C4009.08 2616.37 4003.28 2593.46 3991.68 2572.58C3980.66 2551.12 3965.58 2534.01 3946.44 2521.25C3927.3 2507.91 3906.42 2501.24 3883.8 2501.24H3687.18V2783.12Z" fill="white"/>
<path d="M3635.71 2377V2100.1H3729.7C3759.08 2100.1 3783.52 2106.34 3803.02 2118.82C3822.78 2131.04 3837.6 2147.68 3847.48 2168.74C3857.36 2189.54 3862.3 2212.68 3862.3 2238.16C3862.3 2266.24 3856.84 2290.68 3845.92 2311.48C3835 2332.28 3819.66 2348.4 3799.9 2359.84C3780.14 2371.28 3756.74 2377 3729.7 2377H3635.71ZM3835 2238.16C3835 2216.06 3830.84 2196.43 3822.52 2179.27C3814.46 2162.11 3802.5 2148.72 3786.64 2139.1C3771.04 2129.22 3752.06 2124.28 3729.7 2124.28H3663.01V2352.82H3729.7C3752.58 2352.82 3771.82 2347.75 3787.42 2337.61C3803.02 2327.47 3814.85 2313.82 3822.91 2296.66C3830.97 2279.5 3835 2260 3835 2238.16ZM4100.53 2352.82V2377H3914.5V2100.1H4097.02V2124.28H3941.8V2224.12H4077.13V2247.13H3941.8V2352.82H4100.53Z" fill="white"/>
</svg>
