<svg width="3273" height="2883" viewBox="0 0 3273 2883" fill="none" xmlns="http://www.w3.org/2000/svg">
<path d="M1800 1341.89L1842.74 838.382L2334.42 725.624L2594.23 1155.75L2264.82 1537.69L1800 1341.89Z" fill="#C4C4C4"/>
<path d="M1920.89 2065.61C2133.34 2103.56 2424.91 2195.42 2818.42 1882.31L2298.05 1755.51L1920.89 2065.61Z" fill="#C4C4C4"/>
<path d="M3108.81 1551.08C3173.9 1356.22 3300.59 1094.27 3061.04 680.352L2869.83 1152.98L3108.81 1551.08Z" fill="#C4C4C4"/>
<path d="M2863.41 426.066C2688.31 300.123 2465.14 91.5281 1975.55 202.802L2389.85 541.692L2863.41 426.066Z" fill="#C4C4C4"/>
<path d="M1801.92 229.902C1612.29 332.68 1327.33 442.74 1214.28 931.928L1699.77 706.555L1801.92 229.902Z" fill="#C4C4C4"/>
<path d="M1248.86 1264.2C1259.47 1438.6 1237.48 1688.05 1609.49 1913.81L1614.6 1478.05L1248.86 1264.2Z" fill="#FFC83E"/>
<path d="M73.3916 2599.73C326.369 2552.31 930.536 2267.56 1323.38 1507.92L1413.67 1749.74C1116.15 2262.45 445.45 2544.36 73.3916 2599.73Z" fill="#FFC83E"/>
<path d="M-1.23e-05 2654.48C366.49 2648.67 1034.68 2594.4 1680.6 1954.53L1839.65 2036.63L2065.32 2086.06C1486.76 2492.61 537.343 2660.33 -1.23e-05 2654.48Z" fill="#C4C4C4"/>
</svg>
