<svg width="2926" height="2258" viewBox="0 0 2926 2258" fill="none" xmlns="http://www.w3.org/2000/svg">
<rect width="2926" height="2257.2" fill="white"/>
<rect x="292.6" y="222.476" width="2224.9" height="1694.55" fill="white"/>
<path d="M1300.05 1265.35C1205.98 1463.4 720.881 1718.31 309.053 1716.75C594.163 1749.63 1047.69 1698.97 1326.73 1617.7C1580.18 1543.89 1706.4 1482.55 1842.06 1401.35C1818.19 1299.65 1372.68 1151.92 1325.26 1058.79C1303.84 1086.42 1311.87 1240.46 1300.05 1265.35Z" fill="#E4E4E4"/>
<path d="M1179.95 977.815C1200.75 1036.24 908.168 1600.98 360.795 1680.67C606.786 1724.76 1187.94 1369.83 1279.97 1073.87C1286.49 1052.9 1190.32 1006.94 1179.95 977.815Z" fill="#E4E4E4"/>
<path d="M1887.71 917.518L1778.43 689.616L1527.81 723.095L1482.33 971.718L1704.81 1091.85L1887.71 917.518Z" fill="#E4E4E4"/>
<path d="M1225.06 680.205C1352.32 412.271 1663.79 294.007 1920.76 416.057C2177.72 538.107 2282.87 854.252 2155.61 1122.19C2028.35 1390.12 1716.87 1508.38 1459.91 1386.33C1202.94 1264.29 1097.8 948.14 1225.06 680.205Z" fill="white"/>
<path d="M2196.08 804.353L2045.69 938.566L2134.48 1140.56C2134.48 1140.56 2244.77 1028.97 2196.08 804.353Z" fill="#E4E4E4"/>
<path d="M1293.46 1260.73L1329.83 1061.6L1169.32 937.087C1169.32 937.087 1158.83 1101.55 1293.46 1260.73Z" fill="#E4E4E4"/>
<path d="M1266.28 610.073L1467.54 613.87L1539.53 405.619C1539.47 405.447 1382.92 412.432 1266.28 610.073Z" fill="#E4E4E4"/>
<path d="M1923.46 602.857L1894.43 403.477C1949.95 424.978 1993.35 451.178 2027 478.329C2123.22 555.826 2140.95 640.002 2140.95 640.002L1964.51 609.896L1923.46 602.857Z" fill="#E4E4E4"/>
<path d="M2031.08 1289.21L1812.17 1265L1713.6 1426.4C1713.48 1426.34 1862.87 1445.89 2031.08 1289.21Z" fill="#E4E4E4"/>
<path d="M1868.9 900.135L1715.93 1084.1L1493.74 995.325L1509.28 756.682L1741.21 697.717L1868.9 900.135Z" fill="#E4E4E4"/>
<path d="M1781.87 1120.05V1246.99C1770.18 1253.68 1756.26 1258.97 1740.11 1262.86C1723.96 1266.48 1707.54 1268.29 1690.84 1268.29C1666.89 1268.29 1645.32 1264.53 1626.11 1257.02C1607.18 1249.5 1590.89 1239.2 1577.25 1226.12C1563.61 1212.75 1553.17 1197.02 1545.93 1178.93C1538.69 1160.83 1535.07 1141.07 1535.07 1119.63C1535.07 1095.97 1539.25 1074.39 1547.6 1054.9C1556.23 1035.14 1567.79 1018.15 1582.26 1003.96C1597.02 989.759 1613.86 978.762 1632.79 970.967C1652 962.894 1672.32 958.857 1693.76 958.857C1708.24 958.857 1723.41 960.806 1739.28 964.703C1755.14 968.322 1768.93 973.612 1780.62 980.572L1758.49 1017.74C1754.31 1015.23 1749.44 1013 1743.87 1011.06C1738.58 1009.11 1733.01 1007.44 1727.17 1006.04C1721.32 1004.65 1715.47 1003.68 1709.63 1003.12C1703.78 1002.29 1698.21 1001.87 1692.92 1001.87C1678.17 1001.87 1663.97 1004.79 1650.33 1010.64C1636.69 1016.48 1624.72 1024.56 1614.42 1034.86C1604.12 1045.16 1595.9 1057.27 1589.78 1071.19C1583.65 1085.11 1580.59 1100.14 1580.59 1116.29C1580.59 1131.04 1583.24 1144.96 1588.53 1158.05C1594.09 1171.13 1601.75 1182.69 1611.49 1192.71C1621.24 1202.73 1632.93 1210.66 1646.57 1216.51C1660.21 1222.36 1675.25 1225.28 1691.67 1225.28C1698.07 1225.28 1705.59 1224.72 1714.22 1223.61C1723.13 1222.22 1731.62 1219.99 1739.69 1216.93V1159.3H1680.81V1120.05H1781.87Z" fill="#FFC83E"/>
<path d="M1820.53 1113.78C1820.53 1092.9 1824.56 1073.14 1832.64 1054.49C1840.71 1035.55 1851.71 1018.99 1865.63 1004.79C1879.83 990.594 1896.25 979.458 1914.9 971.385C1933.56 963.033 1953.6 958.857 1975.04 958.857C1996.19 958.857 2016.1 963.033 2034.75 971.385C2053.68 979.458 2070.11 990.594 2084.03 1004.79C2098.23 1018.99 2109.36 1035.55 2117.43 1054.49C2125.79 1073.14 2129.96 1092.9 2129.96 1113.78C2129.96 1135.22 2125.79 1155.26 2117.43 1173.92C2109.36 1192.57 2098.23 1208.99 2084.03 1223.19C2070.11 1237.11 2053.68 1248.11 2034.75 1256.18C2016.1 1264.26 1996.19 1268.29 1975.04 1268.29C1953.6 1268.29 1933.56 1264.26 1914.9 1256.18C1896.25 1248.11 1879.83 1237.11 1865.63 1223.19C1851.71 1208.99 1840.71 1192.57 1832.64 1173.92C1824.56 1155.26 1820.53 1135.22 1820.53 1113.78ZM1866.04 1114.2C1866.04 1129.51 1868.83 1143.99 1874.4 1157.63C1880.24 1170.99 1888.18 1182.69 1898.2 1192.71C1908.22 1202.73 1919.91 1210.66 1933.28 1216.51C1946.64 1222.36 1960.84 1225.28 1975.87 1225.28C1990.9 1225.28 2004.96 1222.36 2018.05 1216.51C2031.41 1210.66 2042.96 1202.73 2052.71 1192.71C2062.73 1182.69 2070.53 1170.99 2076.09 1157.63C2081.94 1143.99 2084.86 1129.37 2084.86 1113.78C2084.86 1098.47 2081.94 1084.13 2076.09 1070.77C2070.53 1057.13 2062.73 1045.3 2052.71 1035.28C2042.69 1025.25 2030.99 1017.32 2017.63 1011.47C2004.55 1005.63 1990.49 1002.7 1975.45 1002.7C1960.42 1002.7 1946.22 1005.63 1932.86 1011.47C1919.5 1017.32 1907.8 1025.25 1897.78 1035.28C1888.04 1045.3 1880.24 1057.13 1874.4 1070.77C1868.83 1084.41 1866.04 1098.89 1866.04 1114.2Z" fill="#FFC83E"/>
<path d="M2183.16 1264.95V962.198H2229.09V1221.52H2379.42V1264.95H2183.16Z" fill="#FFC83E"/>
<path d="M921.212 1718.34V1474.85H826.04V1445.6H1047.28V1474.85H952.112V1718.34H921.212Z" fill="#606060"/>
<path d="M1086.6 1718.34V1445.6H1217.21C1245.22 1445.6 1267.47 1453.29 1283.95 1468.67C1300.7 1484.05 1309.08 1504.79 1309.08 1530.88C1309.08 1548.46 1305.65 1562.47 1298.78 1572.9C1292.19 1583.34 1283.81 1591.31 1273.65 1596.8C1263.49 1602.02 1253.32 1605.86 1243.16 1608.34L1314.85 1718.34H1278.18L1212.26 1613.69H1117.5V1718.34H1086.6ZM1117.5 1584.44H1211.85C1221.74 1584.44 1231.76 1582.93 1241.93 1579.91C1252.09 1576.89 1260.6 1571.53 1267.47 1563.84C1274.61 1555.87 1278.18 1544.89 1278.18 1530.88C1278.18 1513.58 1272.28 1499.98 1260.47 1490.09C1248.65 1479.93 1233 1474.85 1213.5 1474.85H1117.5V1584.44Z" fill="#606060"/>
<path d="M1330.07 1718.34L1445.84 1445.6H1484.57L1600.34 1718.34H1566.15L1532.77 1639.24H1397.64L1364.27 1718.34H1330.07ZM1409.59 1610.81H1520.83L1465.21 1477.73L1409.59 1610.81Z" fill="#606060"/>
<path d="M1635 1718.34V1445.6H1749.94C1766.15 1445.6 1781.67 1448.75 1796.5 1455.07C1811.61 1461.11 1825.06 1470.04 1836.88 1481.85C1848.69 1493.66 1858.02 1507.95 1864.89 1524.7C1871.76 1541.45 1875.19 1560.54 1875.19 1581.97C1875.19 1603.39 1871.76 1622.48 1864.89 1639.24C1858.02 1655.99 1848.69 1670.27 1836.88 1682.08C1825.06 1693.89 1811.61 1702.96 1796.5 1709.28C1781.67 1715.32 1766.15 1718.34 1749.94 1718.34H1635ZM1665.9 1689.09H1748.71C1768.21 1689.09 1785.1 1684.14 1799.38 1674.26C1813.67 1664.37 1824.65 1651.32 1832.34 1635.12C1840.31 1618.91 1844.29 1601.19 1844.29 1581.97C1844.29 1562.47 1840.31 1544.61 1832.34 1528.41C1824.65 1512.2 1813.67 1499.29 1799.38 1489.68C1785.1 1479.79 1768.21 1474.85 1748.71 1474.85H1665.9V1689.09Z" fill="#606060"/>
<path d="M1924.68 1718.34V1445.6H2125.33V1475.26H1955.58V1566.72H2107.2V1596.8H1955.58V1688.68H2125.33V1718.34H1924.68Z" fill="#606060"/>
<path d="M2175.34 1718.34V1445.6H2305.95C2333.96 1445.6 2356.21 1453.29 2372.69 1468.67C2389.45 1484.05 2397.82 1504.79 2397.82 1530.88C2397.82 1548.46 2394.39 1562.47 2387.52 1572.9C2380.93 1583.34 2372.55 1591.31 2362.39 1596.8C2352.23 1602.02 2342.07 1605.86 2331.9 1608.34L2403.59 1718.34H2366.92L2301 1613.69H2206.24V1718.34H2175.34ZM2206.24 1584.44H2300.59C2310.48 1584.44 2320.5 1582.93 2330.67 1579.91C2340.83 1576.89 2349.34 1571.53 2356.21 1563.84C2363.35 1555.87 2366.92 1544.89 2366.92 1530.88C2366.92 1513.58 2361.02 1499.98 2349.21 1490.09C2337.4 1479.93 2321.74 1474.85 2302.24 1474.85H2206.24V1584.44Z" fill="#606060"/>
<path d="M2180.45 1300.25H2210.9C2223.17 1300.25 2233.54 1302.09 2242.02 1305.77C2250.5 1309.45 2257.36 1314.3 2262.6 1320.33C2267.95 1326.24 2271.8 1332.93 2274.15 1340.4C2276.6 1347.77 2277.83 1355.13 2277.83 1362.49C2277.83 1371.52 2276.21 1379.72 2272.97 1387.08C2269.74 1394.33 2265.33 1400.52 2259.76 1405.66C2254.18 1410.79 2247.71 1414.75 2240.35 1417.53C2232.99 1420.21 2225.18 1421.55 2216.92 1421.55H2180.45V1300.25ZM2214.25 1404.15C2220.72 1404.15 2226.68 1403.2 2232.15 1401.31C2237.73 1399.41 2242.52 1396.68 2246.54 1393.11C2250.67 1389.43 2253.84 1384.96 2256.08 1379.72C2258.42 1374.37 2259.59 1368.23 2259.59 1361.32C2259.59 1353.96 2258.31 1347.54 2255.74 1342.08C2253.18 1336.61 2249.83 1332.09 2245.7 1328.52C2241.58 1324.84 2236.89 1322.17 2231.65 1320.49C2226.52 1318.71 2221.28 1317.82 2215.92 1317.82H2198.69V1404.15H2214.25Z" fill="#606060"/>
<path d="M2299.4 1421.55V1300.25H2379.04V1316.81H2317.8V1352.28H2372.35V1369.18H2317.8V1404.65H2381.38V1421.55H2299.4Z" fill="#606060"/>
</svg>
